<?xml version="1.0" encoding="utf-8"?>
<!-- Generator: Adobe Illustrator 25.1.0, SVG Export Plug-In . SVG Version: 6.00 Build 0)  -->
<svg version="1.1" id="Ebene_1" xmlns="http://www.w3.org/2000/svg" xmlns:xlink="http://www.w3.org/1999/xlink" x="0px"
	 y="0px"
	 viewBox="0 0 200 200" style="enable-background:new 0 0 200 200;" xml:space="preserve">
<style type="text/css">
	.st0{fill:#005A99;}
	.st1{fill:#FFFFFF;}
	.st2{fill:#FED501;}
</style>
	<g>
	<path class="st0" d="M167.9,188c-54.6,0-109.2,0-163.8,0c-0.4,0-0.7-0.2-1.1-0.2c0.1-0.2,0.2-0.4,0.3-0.7c1.2-7.3,2.4-14.6,3.6-22
		c1.9-11.2,3.7-22.4,5.6-33.6c1.3-8,2.7-16,4-24.1c1.3-7.5,2.5-15,3.8-22.5c1.1-6.4,2.1-12.8,3.2-19.2c1.2-7,2.3-13.9,3.5-20.9
		c1.1-6.5,2.1-13,3.2-19.5c0.7-4.1,1.4-8.2,2.1-12.3c54.6,0,109.2,0,163.8,0c0.4,0,0.7,0.2,1.1,0.2c-0.1,0.3-0.2,0.6-0.3,0.9
		c-1.9,11.2-3.7,22.4-5.6,33.6c-1.5,9-3,17.9-4.5,26.9c-1.2,7.3-2.4,14.6-3.6,21.8c-1.1,6.6-2.2,13.3-3.3,19.9
		c-1.2,6.9-2.3,13.8-3.5,20.8c-1.1,6.3-2.1,12.6-3.2,18.9c-1.2,7.1-2.4,14.2-3.5,21.2C169,180.9,168.5,184.4,167.9,188z M117.5,94.5
		c-0.1-0.2-0.3-0.5-0.5-0.7c-11.4-16.6-22.7-33.2-34.1-49.8C82.5,43.3,82,43,81.2,43c-9.2,0-18.4,0-27.6,0c-0.4,0-0.9,0-1.3,0
		c-0.2,1-0.4,1.8-0.5,2.7c-0.7,4.4-1.5,8.8-2.2,13.2c-0.5,3.3-1.1,6.5-1.7,9.8c-0.7,4.4-1.5,8.9-2.2,13.3c-0.5,3.2-1.1,6.4-1.6,9.7
		c-0.8,4.5-1.5,9.1-2.3,13.6c-0.5,3.1-1.1,6.3-1.6,9.4c-0.7,4.4-1.4,8.7-2.1,13.1c-0.5,3.3-1.1,6.6-1.7,9.9
		c-0.8,4.6-1.5,9.1-2.3,13.7c-0.3,2.1-0.7,4.2-1,6.4c0.6,0,1,0,1.5,0c12.6,0,25.3,0,37.9,0c0.3,0,0.7,0.1,0.9,0
		c0.3-0.1,0.7-0.4,0.8-0.7c0.7-3.8,1.3-7.7,2-11.6c0.9-5.6,1.8-11.2,2.8-16.8c0.5-3.1,1.1-6.2,1.6-9.3c0.7-4.3,1.4-8.7,2-13
		c0.1,0.1,0.3,0.3,0.4,0.5c11.4,16.6,22.7,33.2,34.1,49.9c0.5,0.8,1.1,1.1,2.1,1.1c9.1,0,18.2,0,27.4,0c1.2,0,1.6-0.5,1.7-1.5
		c0.7-4.6,1.5-9.2,2.3-13.8c0.5-3.1,1-6.2,1.6-9.3c0.9-5.2,1.7-10.5,2.6-15.7c0.7-4.3,1.5-8.7,2.2-13c0.9-5.5,1.8-11,2.7-16.4
		c0.2-1-0.1-1.4-0.8-2c-10.1-8.1-20.1-16.2-30.2-24.2c-1.6-1.3-3.2-2.6-5-4C121.5,70.3,119.5,82.4,117.5,94.5z M162.2,72.1
		c-0.3-1.4-0.4-2.5-0.6-3.6c-0.9-4.6-1.8-9.1-2.7-13.7c-0.1-0.4,0.3-1,0.6-1.2c3.3-2.3,6.7-4.5,10.1-6.7c1.8-1.2,3.6-2.4,5.4-3.6
		c-0.4-0.2-0.7-0.2-1-0.2c-4.9,0-9.8,0-14.6,0c-2.5,0-2.6,0-3.1-2.4c-0.8-3.9-1.5-7.9-2.3-11.9c-0.2-1.2-0.5-2.4-0.8-3.8
		c-0.3,0.6-0.5,0.9-0.6,1.2c-2.4,5.3-4.8,10.5-7.2,15.8c-0.4,0.8-0.8,1.1-1.7,1.1c-5.2,0-10.5,0-15.7,0c-0.5,0-1.1,0-1.6,0
		c0,0.1,0,0.2-0.1,0.3C138.2,52.8,150,62.4,162.2,72.1z"/>
		<path class="st1" d="M167.9,188c0.6-3.5,1.1-7.1,1.7-10.6c1.2-7.1,2.3-14.2,3.5-21.2c1-6.3,2.1-12.6,3.2-18.9
		c1.2-6.9,2.3-13.8,3.5-20.8c1.1-6.6,2.2-13.3,3.3-19.9c1.2-7.3,2.4-14.6,3.6-21.8c1.5-9,3-17.9,4.5-26.9
		c1.9-11.2,3.7-22.4,5.6-33.6c0.1-0.3,0.2-0.6,0.3-0.9c0,58.2,0,116.5,0,174.7C187.4,188,177.6,188,167.9,188z"/>
		<path class="st1" d="M32.3,13c-0.7,4.1-1.4,8.2-2.1,12.3c-1.1,6.5-2.2,13-3.2,19.5c-1.2,7-2.3,13.9-3.5,20.9
		c-1.1,6.4-2.1,12.8-3.2,19.2c-1.3,7.5-2.5,15-3.8,22.5c-1.3,8-2.7,16-4,24.1c-1.9,11.2-3.7,22.4-5.6,33.6c-1.2,7.3-2.4,14.6-3.6,22
		c0,0.2-0.2,0.4-0.3,0.7C3,129.5,3,71.2,3,13C12.8,13,22.5,13,32.3,13z"/>
		<path class="st2" d="M117.5,94.5c2-12.1,4-24.2,6-36.6c1.8,1.4,3.4,2.7,5,4c10.1,8.1,20.1,16.2,30.2,24.2c0.7,0.6,0.9,1,0.8,2
		c-1,5.5-1.8,10.9-2.7,16.4c-0.7,4.3-1.5,8.7-2.2,13c-0.9,5.2-1.7,10.5-2.6,15.7c-0.5,3.1-1,6.2-1.6,9.3c-0.8,4.6-1.5,9.2-2.3,13.8
		c-0.2,1.1-0.5,1.5-1.7,1.5c-9.1-0.1-18.2,0-27.4,0c-0.9,0-1.5-0.3-2.1-1.1C105.7,140.2,94.3,123.6,83,107c-0.1-0.2-0.3-0.4-0.4-0.5
		c-0.7,4.3-1.3,8.7-2,13c-0.5,3.1-1,6.2-1.6,9.3c-0.9,5.6-1.9,11.2-2.8,16.8c-0.6,3.9-1.3,7.7-2,11.6c-0.1,0.3-0.4,0.6-0.8,0.7
		c-0.3,0.1-0.6,0-0.9,0c-12.6,0-25.3,0-37.9,0c-0.5,0-0.9,0-1.5,0c0.4-2.3,0.7-4.4,1-6.4c0.8-4.6,1.5-9.1,2.3-13.7
		c0.6-3.3,1.1-6.6,1.7-9.9c0.7-4.4,1.4-8.7,2.1-13.1c0.5-3.1,1.1-6.3,1.6-9.4c0.8-4.5,1.5-9.1,2.3-13.6c0.5-3.2,1.1-6.4,1.6-9.7
		c0.7-4.4,1.5-8.9,2.2-13.3c0.5-3.3,1.1-6.5,1.7-9.8c0.7-4.4,1.4-8.8,2.2-13.2c0.1-0.9,0.3-1.7,0.5-2.7c0.5,0,0.9,0,1.3,0
		c9.2,0,18.4,0,27.6,0c0.8,0,1.2,0.3,1.6,0.9c11.4,16.6,22.7,33.2,34.1,49.8C117.2,94,117.4,94.3,117.5,94.5z"/>
		<path class="st2" d="M162.2,72.1c-12.1-9.7-24-19.3-35.9-28.8c0-0.1,0-0.2,0.1-0.3c0.5,0,1.1,0,1.6,0c5.2,0,10.5,0,15.7,0
		c0.9,0,1.3-0.3,1.7-1.1c2.4-5.3,4.8-10.5,7.2-15.8c0.1-0.3,0.3-0.6,0.6-1.2c0.3,1.5,0.6,2.6,0.8,3.8c0.8,4,1.5,7.9,2.3,11.9
		c0.5,2.4,0.6,2.4,3.1,2.4c4.9,0,9.8,0,14.6,0c0.3,0,0.6,0,1,0.2c-1.8,1.2-3.6,2.4-5.4,3.6c-3.4,2.2-6.7,4.4-10.1,6.7
		c-0.3,0.2-0.7,0.8-0.6,1.2c0.8,4.6,1.8,9.2,2.7,13.7C161.7,69.6,161.9,70.7,162.2,72.1z"/>
</g>
</svg>
